<svg width="24" height="24" viewBox="0 0 24 24" fill="none" xmlns="http://www.w3.org/2000/svg">
<g clip-path="url(#clip0_849_2291)">
<path d="M1.5 17.9998C1.50129 18.6295 1.63558 19.2519 1.89407 19.8262C2.15256 20.4004 2.52943 20.9136 3 21.3321V23.2498C3 23.4487 3.07902 23.6395 3.21967 23.7801C3.36032 23.9208 3.55109 23.9998 3.75 23.9998H5.25C5.44891 23.9998 5.63968 23.9208 5.78033 23.7801C5.92098 23.6395 6 23.4487 6 23.2498V22.4998H18V23.2498C18 23.4487 18.079 23.6395 18.2197 23.7801C18.3603 23.9208 18.5511 23.9998 18.75 23.9998H20.25C20.4489 23.9998 20.6397 23.9208 20.7803 23.7801C20.921 23.6395 21 23.4487 21 23.2498V21.3321C21.4706 20.9136 21.8474 20.4004 22.1059 19.8262C22.3644 19.2519 22.4987 18.6295 22.5 17.9998V15.7498H1.5V17.9998ZM23.25 11.9998H3.75V3.24587C3.75043 3.04903 3.80914 2.85672 3.91873 2.69321C4.02832 2.52969 4.18388 2.4023 4.36579 2.32708C4.5477 2.25187 4.74781 2.23222 4.94087 2.2706C5.13394 2.30898 5.31131 2.40368 5.45062 2.54275L6.35391 3.44556C5.73844 4.84619 5.99719 6.21634 6.75797 7.18291L6.75 7.19087C6.60988 7.33145 6.53121 7.52184 6.53121 7.72033C6.53121 7.91881 6.60988 8.1092 6.75 8.24978L7.28016 8.77994C7.3498 8.8496 7.43249 8.90486 7.52349 8.94256C7.6145 8.98026 7.71204 8.99967 7.81055 8.99967C7.90905 8.99967 8.00659 8.98026 8.0976 8.94256C8.1886 8.90486 8.27129 8.8496 8.34094 8.77994L13.2802 3.84072C13.3498 3.77107 13.4051 3.68839 13.4428 3.59738C13.4805 3.50637 13.4999 3.40883 13.4999 3.31033C13.4999 3.21182 13.4805 3.11428 13.4428 3.02328C13.4051 2.93227 13.3498 2.84958 13.2802 2.77994L12.75 2.24978C12.6094 2.10923 12.4187 2.03028 12.2198 2.03028C12.021 2.03028 11.8303 2.10923 11.6897 2.24978L11.6817 2.25775C10.7152 1.49697 9.34594 1.23822 7.94438 1.85369L7.04156 0.950406C6.58759 0.496378 6.00916 0.187174 5.37945 0.0619006C4.74973 -0.0633728 4.09701 0.000911139 3.50383 0.246622C2.91065 0.492334 2.40366 0.908435 2.04698 1.4423C1.6903 1.97617 1.49995 2.60382 1.5 3.24587V11.9998H0.75C0.551088 11.9998 0.360322 12.0788 0.21967 12.2194C0.0790176 12.3601 0 12.5509 0 12.7498L0 13.4998C0 13.6987 0.0790176 13.8895 0.21967 14.0301C0.360322 14.1708 0.551088 14.2498 0.75 14.2498H23.25C23.4489 14.2498 23.6397 14.1708 23.7803 14.0301C23.921 13.8895 24 13.6987 24 13.4998V12.7498C24 12.5509 23.921 12.3601 23.7803 12.2194C23.6397 12.0788 23.4489 11.9998 23.25 11.9998Z" fill="#1f2246"/>
</g>
<defs>
<clipPath id="clip0_849_2291">
<rect width="24" height="24" fill="white"/>
</clipPath>
</defs>
</svg>
