<svg width="24" height="24" viewBox="0 0 24 24" fill="none" xmlns="http://www.w3.org/2000/svg">
<path d="M3 19C2.71667 19 2.47934 18.904 2.288 18.712C2.09667 18.52 2.00067 18.2827 2 18C1.99934 17.7173 2.09534 17.48 2.288 17.288C2.48067 17.096 2.718 17 3 17H21C21.2833 17 21.521 17.096 21.713 17.288C21.905 17.48 22.0007 17.7173 22 18C21.9993 18.2827 21.9033 18.5203 21.712 18.713C21.5207 18.9057 21.2833 19.0013 21 19H3ZM3 16V15C3 12.8667 3.65434 10.9833 4.963 9.35C6.27167 7.71667 7.95067 6.68334 10 6.25V6C10 5.45 10.196 4.97933 10.588 4.588C10.98 4.19667 11.4507 4.00067 12 4C12.5493 3.99934 13.0203 4.19533 13.413 4.588C13.8057 4.98067 14.0013 5.45133 14 6V6.25C16.0667 6.68334 17.75 7.71667 19.05 9.35C20.35 10.9833 21 12.8667 21 15V16H3Z" fill="#1f2246"/>
</svg>
