<svg width="24" height="24" viewBox="0 0 24 24" fill="none" xmlns="http://www.w3.org/2000/svg">
<path d="M2.57031 5.78557C2.57031 4.93309 2.90896 4.11553 3.51175 3.51273C4.11455 2.90994 4.93212 2.57129 5.7846 2.57129H18.2132C19.0657 2.57129 19.8832 2.90994 20.486 3.51273C21.0888 4.11553 21.4275 4.93309 21.4275 5.78557V18.2141C21.4275 19.0666 21.0888 19.8842 20.486 20.487C19.8832 21.0898 19.0657 21.4284 18.2132 21.4284H12.3623C12.7908 21.01 13.131 20.5101 13.363 19.958C13.5951 19.4059 13.7141 18.813 13.7132 18.2141V14.7856C13.7132 12.2999 11.6989 10.2856 9.21317 10.2856H5.7846C5.18576 10.2846 4.59281 10.4037 4.04074 10.6357C3.48868 10.8677 2.9887 11.208 2.57031 11.6364V5.78557ZM2.57031 14.7856V18.2141C2.57031 19.0666 2.90896 19.8842 3.51175 20.487C4.11455 21.0898 4.93212 21.4284 5.7846 21.4284H9.21317C10.0657 21.4284 10.8832 21.0898 11.486 20.487C12.0888 19.8842 12.4275 19.0666 12.4275 18.2141V14.7856C12.4275 13.9331 12.0888 13.1155 11.486 12.5127C10.8832 11.9099 10.0657 11.5713 9.21317 11.5713H5.7846C4.93212 11.5713 4.11455 11.9099 3.51175 12.5127C2.90896 13.1155 2.57031 13.9331 2.57031 14.7856Z" fill="#1f2246"/>
</svg>
