<svg width="27" height="24" viewBox="0 0 27 24" fill="none" xmlns="http://www.w3.org/2000/svg">
<path d="M12.1471 7.1875C12.1471 6.09348 11.7194 5.04427 10.9583 4.27068C10.1971 3.4971 9.1647 3.0625 8.08824 3.0625C7.01177 3.0625 5.97939 3.4971 5.21821 4.27068C4.45704 5.04427 4.02941 6.09348 4.02941 7.1875C4.02941 8.28152 4.45704 9.33073 5.21821 10.1043C5.97939 10.8779 7.01177 11.3125 8.08824 11.3125C9.1647 11.3125 10.1971 10.8779 10.9583 10.1043C11.7194 9.33073 12.1471 8.28152 12.1471 7.1875ZM14.0243 8.5625C13.4112 11.3168 10.9844 13.375 8.08824 13.375C4.72702 13.375 2 10.6035 2 7.1875C2 3.77148 4.72702 1 8.08824 1C10.9844 1 13.4112 3.0582 14.0243 5.8125H17.0599C17.432 5.39141 17.9732 5.125 18.5735 5.125H22.9706C24.091 5.125 25 6.04883 25 7.1875C25 8.32617 24.091 9.25 22.9706 9.25H18.5735C17.9732 9.25 17.432 8.98359 17.0599 8.5625H14.0243ZM8.08824 4.4375C8.80588 4.4375 9.49413 4.72723 10.0016 5.24296C10.509 5.75868 10.7941 6.45815 10.7941 7.1875C10.7941 7.91685 10.509 8.61632 10.0016 9.13204C9.49413 9.64777 8.80588 9.9375 8.08824 9.9375C7.37059 9.9375 6.68234 9.64777 6.17489 9.13204C5.66744 8.61632 5.38235 7.91685 5.38235 7.1875C5.38235 6.45815 5.66744 5.75868 6.17489 5.24296C6.68234 4.72723 7.37059 4.4375 8.08824 4.4375ZM18.9118 11.3125C19.4741 11.3125 19.9265 11.7723 19.9265 12.3438V12.6875H23.9853C24.5476 12.6875 25 13.1473 25 13.7188C25 14.2902 24.5476 14.75 23.9853 14.75H13.8382C13.2759 14.75 12.8235 14.2902 12.8235 13.7188C12.8235 13.1473 13.2759 12.6875 13.8382 12.6875H17.8971V12.3438C17.8971 11.7723 18.3494 11.3125 18.9118 11.3125ZM14.1765 20.9375V16.125H23.6471V20.9375C23.6471 22.0762 22.7381 23 21.6176 23H16.2059C15.0855 23 14.1765 22.0762 14.1765 20.9375ZM4.02941 14.75H9.44118C10.5616 14.75 11.4706 15.6738 11.4706 16.8125C11.4706 17.9512 10.5616 18.875 9.44118 18.875H8.76471C8.76471 19.6355 8.16011 20.25 7.41176 20.25H4.70588C3.95754 20.25 3.35294 19.6355 3.35294 18.875V15.4375C3.35294 15.0594 3.65735 14.75 4.02941 14.75ZM9.44118 17.5C9.81324 17.5 10.1176 17.1906 10.1176 16.8125C10.1176 16.4344 9.81324 16.125 9.44118 16.125H8.76471V17.5H9.44118ZM3.01471 20.9375H10.4559C11.0182 20.9375 11.4706 21.3973 11.4706 21.9688C11.4706 22.5402 11.0182 23 10.4559 23H3.01471C2.45239 23 2 22.5402 2 21.9688C2 21.3973 2.45239 20.9375 3.01471 20.9375Z" fill="#1f2246"/>
</svg>
