<svg width="24" height="24" viewBox="0 0 24 24" fill="none" xmlns="http://www.w3.org/2000/svg">
<path d="M12 22C10.2333 22 8.79167 21.721 7.675 21.163C6.55833 20.605 6 19.884 6 19C6 18.6833 6.071 18.3917 6.213 18.125C6.355 17.8583 6.56733 17.6083 6.85 17.375C7.08333 17.2083 7.33767 17.1417 7.613 17.175C7.88833 17.2083 8.109 17.3417 8.275 17.575C8.441 17.8083 8.50367 18.0627 8.463 18.338C8.42233 18.6133 8.28467 18.834 8.05 19C8.26667 19.2667 8.76667 19.5 9.55 19.7C10.3333 19.9 11.15 20 12 20C12.85 20 13.6667 19.9 14.45 19.7C15.2333 19.5 15.7333 19.2667 15.95 19C15.7167 18.8333 15.579 18.6123 15.537 18.337C15.495 18.0617 15.5577 17.8077 15.725 17.575C15.8923 17.3423 16.1133 17.209 16.388 17.175C16.6627 17.141 16.9167 17.2077 17.15 17.375C17.4333 17.6083 17.646 17.8583 17.788 18.125C17.93 18.3917 18.0007 18.6833 18 19C18 19.8833 17.4417 20.6043 16.325 21.163C15.2083 21.7217 13.7667 22.0007 12 22ZM12 18.525C11.8 18.525 11.6 18.4917 11.4 18.425C11.2 18.3583 11.0167 18.2583 10.85 18.125C8.88333 16.5583 7.41667 15.029 6.45 13.537C5.48333 12.045 5 10.5827 5 9.15C5 7.96667 5.21267 6.929 5.638 6.037C6.06333 5.145 6.609 4.39934 7.275 3.8C7.941 3.20067 8.691 2.75067 9.525 2.45C10.359 2.14934 11.184 1.99934 12 2C12.816 2.00067 13.641 2.15067 14.475 2.45C15.309 2.74934 16.059 3.19934 16.725 3.8C17.391 4.40067 17.937 5.14667 18.363 6.038C18.789 6.92934 19.0013 7.96667 19 9.15C19 10.5833 18.5167 12.046 17.55 13.538C16.5833 15.03 15.1167 16.559 13.15 18.125C12.9833 18.2583 12.8 18.3583 12.6 18.425C12.4 18.4917 12.2 18.525 12 18.525ZM12 11C12.55 11 13.021 10.8043 13.413 10.413C13.805 10.0217 14.0007 9.55067 14 9C13.9993 8.44934 13.8037 7.97867 13.413 7.588C13.0223 7.19734 12.5513 7.00134 12 7C11.4487 6.99867 10.978 7.19467 10.588 7.588C10.198 7.98134 10.002 8.452 10 9C9.998 9.548 10.194 10.019 10.588 10.413C10.982 10.807 11.4527 11.0027 12 11Z" fill="#1f2246"/>
</svg>
