<svg width="24" height="24" viewBox="0 0 24 24" fill="none" xmlns="http://www.w3.org/2000/svg">
<path d="M3.99812 18.9999V11.6249L2.99812 12.3999C2.76478 12.5666 2.51478 12.6332 2.24812 12.5999C1.98145 12.5666 1.76478 12.4332 1.59812 12.1999C1.43145 11.9666 1.36912 11.7166 1.41112 11.4499C1.45312 11.1832 1.58212 10.9666 1.79812 10.7999L10.7731 3.9249C10.9565 3.79157 11.1525 3.69157 11.3611 3.6249C11.5698 3.55824 11.7821 3.5249 11.9981 3.5249C12.2141 3.5249 12.4268 3.55824 12.6361 3.6249C12.8455 3.69157 13.0411 3.79157 13.2231 3.9249L22.2231 10.7999C22.4398 10.9666 22.5648 11.1832 22.5981 11.4499C22.6315 11.7166 22.5648 11.9666 22.3981 12.1999C22.2315 12.4166 22.0148 12.5416 21.7481 12.5749C21.4815 12.6082 21.2398 12.5416 21.0231 12.3749L19.9981 11.6249V18.9999C19.9981 19.5499 19.8025 20.0209 19.4111 20.4129C19.0198 20.8049 18.5488 21.0006 17.9981 20.9999H5.99812C5.44812 20.9999 4.97745 20.8042 4.58612 20.4129C4.19478 20.0216 3.99878 19.5506 3.99812 18.9999ZM7.99812 14.9999C8.28145 14.9999 8.51912 14.9039 8.71112 14.7119C8.90312 14.5199 8.99878 14.2826 8.99812 13.9999C8.99745 13.7172 8.90145 13.4799 8.71012 13.2879C8.51878 13.0959 8.28145 12.9999 7.99812 12.9999C7.71478 12.9999 7.47745 13.0959 7.28612 13.2879C7.09478 13.4799 6.99878 13.7172 6.99812 13.9999C6.99745 14.2826 7.09345 14.5202 7.28612 14.7129C7.47878 14.9056 7.71612 15.0012 7.99812 14.9999ZM11.9981 14.9999C12.2815 14.9999 12.5191 14.9039 12.7111 14.7119C12.9031 14.5199 12.9988 14.2826 12.9981 13.9999C12.9975 13.7172 12.9015 13.4799 12.7101 13.2879C12.5188 13.0959 12.2815 12.9999 11.9981 12.9999C11.7148 12.9999 11.4775 13.0959 11.2861 13.2879C11.0948 13.4799 10.9988 13.7172 10.9981 13.9999C10.9975 14.2826 11.0935 14.5202 11.2861 14.7129C11.4788 14.9056 11.7161 15.0012 11.9981 14.9999ZM15.9981 14.9999C16.2815 14.9999 16.5191 14.9039 16.7111 14.7119C16.9031 14.5199 16.9988 14.2826 16.9981 13.9999C16.9975 13.7172 16.9015 13.4799 16.7101 13.2879C16.5188 13.0959 16.2815 12.9999 15.9981 12.9999C15.7148 12.9999 15.4775 13.0959 15.2861 13.2879C15.0948 13.4799 14.9988 13.7172 14.9981 13.9999C14.9975 14.2826 15.0935 14.5202 15.2861 14.7129C15.4788 14.9056 15.7161 15.0012 15.9981 14.9999Z" fill="#1f2246"/>
</svg>
